<?xml version="1.0" encoding="utf-8"?>
<!-- Generator: Adobe Illustrator 26.5.0, SVG Export Plug-In . SVG Version: 6.00 Build 0)  -->
<svg version="1.1" id="Layer_1" xmlns="http://www.w3.org/2000/svg" xmlns:xlink="http://www.w3.org/1999/xlink" x="0px" y="0px"
	 viewBox="0 0 306 194.58" style="enable-background:new 0 0 306 194.58;" xml:space="preserve">
<style type="text/css">
	.st0{fill-rule:evenodd;clip-rule:evenodd;fill:#FFFFFF;}
	.st1{fill-rule:evenodd;clip-rule:evenodd;fill:#F37020;}
	.st2{fill:#FFFFFF;}
	.st3{fill:#F37020;}
</style>
<path class="st0" d="M153,84.08l38.94-67.45h7.85l-42.86,74.24l3.92,6.8l46.79-81.04h7.85l-50.71,87.83l3.92,6.8L227.25,9.83
	c-13.08,0-26.16,0-39.24,0L153,70.48L117.98,9.83h-7.85L153,84.08z M90.52,16.63h7.85l16.07,27.84h7.85l-20-34.63
	c-7.85,0-15.69,0-23.54,0l27.84,48.22h15.69l18.95,32.81l-3.92,6.8l-18.95-32.81h-7.85l26.79,46.41l11.77-20.39l-22.87-39.61
	c-5.23,0-10.46,0-15.69,0L90.52,16.63z"/>
<polygon class="st1" points="153,15.26 161.31,10.47 169.61,5.67 169.61,15.26 169.61,24.86 161.31,20.06 "/>
<polygon class="st1" points="153,15.26 144.69,10.47 136.39,5.67 136.39,15.26 136.39,24.86 144.69,20.06 "/>
<path class="st2" d="M112.34,191.16h8.6v-37.84h14.46v-7.82c-13.22,0-24.36,0-37.52,0v7.82h14.46V191.16z M87.54,182.69h-25.6V172.4
	h24.68v-8.01H61.95v-10.55h25.6v-8.34H53.42c0,15.22,0,30.48,0,45.66h34.13V182.69z M41.78,153.05c-3.45-7.03-10.81-9.05-17.91-9.05
	c-8.4,0.07-17.65,3.91-17.65,13.29c0,10.23,8.6,12.7,17.91,13.81c6.06,0.65,10.55,2.41,10.55,6.71c0,4.95-5.08,6.84-10.49,6.84
	c-5.54,0-10.81-2.21-12.83-7.23l-7.16,3.71c3.39,8.34,10.55,11.2,19.87,11.2c10.16,0,19.15-4.36,19.15-14.52
	c0-10.88-8.86-13.35-18.37-14.53c-5.47-0.65-10.16-1.76-10.16-5.73c0-3.39,3.06-6.06,9.44-6.06c4.95,0,9.25,2.47,10.81,5.08
	L41.78,153.05z"/>
<path class="st3" d="M293.2,173.81l-22.34-28.31h-6.97v45.66h8.6v-30.79l23.97,30.79h5.34V145.5h-8.6V173.81z M251.54,182.69h-25.6
	V172.4h24.69v-8.01h-24.69v-10.55h25.6v-8.34h-34.13c0,15.22,0,30.48,0,45.66h34.13V182.69z M197.18,191.16h8.6v-45.53h-9.83
	l-14.26,19.57l-14.26-19.57h-9.9v45.53h8.6v-33.1l14.52,19.83h1.69l14.85-19.77V191.16z"/>
</svg>
